<svg width="57" height="57" viewBox="0 0 57 57" fill="none" xmlns="http://www.w3.org/2000/svg">


<g id="code">
<path d="M21.375 30.875C19.8075 31.6587 18.5012 32.8225 17.5275 34.2713C16.9812 35.1025 16.9812 36.1475 17.5275 36.9787C18.5012 38.4275 19.8075 39.5912 21.375 40.375" stroke="black" stroke-width="3" stroke-linecap="round" stroke-linejoin="round"/>
<path d="M36.1238 30.875C37.6913 31.6587 38.9975 32.8225 39.9712 34.2713C40.5175 35.1025 40.5175 36.1475 39.9712 36.9787C38.9975 38.4275 37.6913 39.5912 36.1238 40.375" stroke="black" stroke-width="3" stroke-linecap="round" stroke-linejoin="round"/>
<path d="M4.75 30.875V35.625C4.75 47.5 9.5 52.25 21.375 52.25H35.625C47.5 52.25 52.25 47.5 52.25 35.625V21.375C52.25 9.5 47.5 4.75 35.625 4.75H21.375C9.5 4.75 4.75 9.5 4.75 21.375" stroke="black" stroke-width="3" stroke-linecap="round" stroke-linejoin="round"/>
<path d="M5.29625 19.0238L50.9438 19" stroke="black" stroke-width="3" stroke-linecap="round" stroke-linejoin="round"/>
</g>


<g id="git">
<path d="M20.15 35.65V24.8" stroke="black" stroke-width="3" stroke-linecap="round" stroke-linejoin="round"/>
<path d="M20.5375 46.5C23.3197 46.5 25.5751 44.2446 25.5751 41.4625C25.5751 38.6803 23.3197 36.425 20.5375 36.425C17.7554 36.425 15.5 38.6803 15.5 41.4625C15.5 44.2446 17.7554 46.5 20.5375 46.5Z" stroke="black" stroke-width="3" stroke-linecap="round" stroke-linejoin="round"/>
<path d="M20.15 24.8C22.7181 24.8 24.7999 22.7181 24.7999 20.15C24.7999 17.5818 22.7181 15.5 20.15 15.5C17.5818 15.5 15.5 17.5818 15.5 20.15C15.5 22.7181 17.5818 24.8 20.15 24.8Z" stroke="black" stroke-width="3" stroke-linecap="round" stroke-linejoin="round"/>
<path d="M41.85 24.8C44.4182 24.8 46.5 22.7181 46.5 20.15C46.5 17.5818 44.4182 15.5 41.85 15.5C39.2819 15.5 37.2001 17.5818 37.2001 20.15C37.2001 22.7181 39.2819 24.8 41.85 24.8Z" stroke="black" stroke-width="3" stroke-linecap="round" stroke-linejoin="round"/>
<path d="M20.3567 35.6499C21.0542 32.9374 23.5342 30.9225 26.4533 30.9483L31.775 30.9741C35.8308 30.9999 39.2925 28.3907 40.5584 24.7482" stroke="black" stroke-width="3" stroke-linecap="round" stroke-linejoin="round"/>
<path d="M23.25 5.16661H38.75C51.6667 5.16661 56.8333 10.3333 56.8333 23.2499V38.7499C56.8333 51.6666 51.6667 56.8333 38.75 56.8333H23.25C10.3333 56.8333 5.16666 51.6666 5.16666 38.7499V23.2499C5.16666 10.3333 10.3333 5.16661 23.25 5.16661Z" stroke="black" stroke-width="3" stroke-linecap="round" stroke-linejoin="round"/>
</g>

<g id="java">
<path d="M23.895 15.7725V35.9775L16.875 33.9525" stroke="black" stroke-width="3" stroke-miterlimit="10" stroke-linecap="round" stroke-linejoin="round"/>
<path d="M37.125 15.75L30.0374 16.7625V27.9L37.125 26.8875V33.975L29.0251 36" stroke="black" stroke-width="3" stroke-miterlimit="10" stroke-linecap="round" stroke-linejoin="round"/>
<path d="M7.47008 11.0475L7.02005 6.9975C6.86255 5.67 7.92003 4.5 9.24753 4.5H44.7301C46.0801 4.5 47.115 5.67 46.9575 6.9975L42.9076 43.4925C42.8176 44.3925 42.165 45.1575 41.2875 45.405L27.6076 49.32C27.2026 49.4325 26.775 49.4325 26.37 49.32L12.6901 45.405C11.8126 45.1575 11.1825 44.3925 11.07 43.4925L8.59508 21.1725" stroke="black" stroke-width="3" stroke-miterlimit="10" stroke-linecap="round" stroke-linejoin="round"/>
</g>


<g id="slider">
<path d="M36 32.02C37.1 32.02 38 32.92 38 34.02V36C38 40.4 35 44 30 44H18C13 44 10 40.4 10 36V34.02C10 32.92 10.9 32.02 12 32.02H36Z" fill="black"/>
<path d="M38 12V27C38 28.1 37.1 29 36 29H12C10.9 29 10 28.1 10 27V12C10 7.60003 13 4.00003 18 4.00003H30C35 4.00003 38 7.60003 38 12Z" fill="black"/>
<path d="M6 41.5C5.18 41.5 4.5 40.82 4.5 40V7.99997C4.5 7.17997 5.18 6.49997 6 6.49997C6.82 6.49997 7.5 7.17997 7.5 7.99997V40C7.5 40.82 6.82 41.5 6 41.5Z" fill="black"/>
<path d="M42 41.5C41.18 41.5 40.5 40.82 40.5 40V7.99997C40.5 7.17997 41.18 6.49997 42 6.49997C42.82 6.49997 43.5 7.17997 43.5 7.99997V40C43.5 40.82 42.82 41.5 42 41.5Z" fill="black"/>
</g>

<g id="android">
<path d="M31.0833 55.7581V63.5081C31.0833 64.5599 30.2186 65.4247 29.1667 65.4247C28.1148 65.4247 27.25 64.5599 27.25 63.5081V55.7581H31.0833Z" stroke="black" stroke-width="2"/>
<path d="M42.75 55.7581V63.5081C42.75 64.5599 41.8852 65.4247 40.8333 65.4247C39.7814 65.4247 38.9167 64.5599 38.9167 63.5081V55.7581H42.75Z" stroke="black" stroke-width="2"/>
<path d="M48.5833 32.0833V46.6667C48.5833 49.3227 46.406 51.5 43.75 51.5H26.25C23.5939 51.5 21.4167 49.3227 21.4167 46.6667V32.0833C21.4167 29.4273 23.5939 27.25 26.25 27.25H43.75C46.406 27.25 48.5833 29.4273 48.5833 32.0833Z" stroke="black" stroke-width="2"/>
<path d="M13.5833 32.0833V43.75C13.5833 44.8019 12.7185 45.6667 11.6667 45.6667C10.6148 45.6667 9.75 44.8019 9.75 43.75V32.0833C9.75 31.0315 10.6148 30.1667 11.6667 30.1667C12.7185 30.1667 13.5833 31.0315 13.5833 32.0833Z" stroke="black" stroke-width="2"/>
<path d="M60.25 32.0833V43.75C60.25 44.8019 59.3852 45.6667 58.3333 45.6667C57.2814 45.6667 56.4167 44.8019 56.4167 43.75V32.0833C56.4167 31.0315 57.2814 30.1667 58.3333 30.1667C59.3852 30.1667 60.25 31.0315 60.25 32.0833Z" stroke="black" stroke-width="2"/>
<path d="M45.6667 17.5C45.6667 19.5144 44.0144 21.1667 42.0001 21.1667H27.9999C25.9856 21.1667 24.3333 19.5144 24.3333 17.5C24.3333 11.6064 29.1065 6.83333 35 6.83333C40.8936 6.83333 45.6667 11.6064 45.6667 17.5Z" stroke="black" stroke-width="2"/>

</g>
<g id="ruler">
<path d="M43.0967 51.5833H33.7633C31.2072 51.5833 29.4513 50.885 28.3315 49.7652C27.2117 48.6454 26.5133 46.8894 26.5133 44.3333V11.6667C26.5133 9.11057 27.2117 7.35465 28.3315 6.23483C29.4513 5.11502 31.2072 4.41667 33.7633 4.41667H43.0967C45.6528 4.41667 47.4087 5.11502 48.5285 6.23483C49.6483 7.35465 50.3467 9.11057 50.3467 11.6667V44.3333C50.3467 46.8865 49.6441 48.643 48.5208 49.7641C47.397 50.8858 45.6396 51.5833 43.0967 51.5833ZM33.7633 4.91667C31.7506 4.91667 29.9565 5.33722 28.6952 6.59851C27.4339 7.85981 27.0133 9.65394 27.0133 11.6667V44.3333C27.0133 46.3461 27.4339 48.1402 28.6952 49.4015C29.9565 50.6628 31.7506 51.0833 33.7633 51.0833H43.0967C45.1094 51.0833 46.9035 50.6628 48.1648 49.4015C49.4261 48.1402 49.8467 46.3461 49.8467 44.3333V11.6667C49.8467 9.65394 49.4261 7.85981 48.1648 6.59851C46.9035 5.33722 45.1094 4.91667 43.0967 4.91667H33.7633Z" stroke="black" stroke-width="3"/>
<path d="M38.43 14.25H26.7633C26.7071 14.25 26.6445 14.2273 26.5902 14.1731C26.536 14.1189 26.5133 14.0563 26.5133 14C26.5133 13.9437 26.536 13.8811 26.5902 13.8269C26.6445 13.7727 26.7071 13.75 26.7633 13.75H38.43C38.4863 13.75 38.5489 13.7727 38.6031 13.8269C38.6573 13.8811 38.68 13.9437 38.68 14C38.68 14.0563 38.6573 14.1189 38.6031 14.1731C38.5489 14.2273 38.4863 14.25 38.43 14.25Z" stroke="black" stroke-width="3"/>
<path d="M36.0967 42.25H26.7633C26.7071 42.25 26.6445 42.2273 26.5902 42.1731C26.536 42.1189 26.5133 42.0563 26.5133 42C26.5133 41.9437 26.536 41.8811 26.5902 41.8269C26.6445 41.7727 26.7071 41.75 26.7633 41.75H36.0967C36.1529 41.75 36.2155 41.7727 36.2698 41.8269C36.324 41.8811 36.3467 41.9437 36.3467 42C36.3467 42.0563 36.324 42.1189 36.2698 42.1731C36.2155 42.2273 36.1529 42.25 36.0967 42.25Z" stroke="black" stroke-width="3"/>
<path d="M26.755 32.8001L26.7475 32.8H26.74C26.6179 32.8 26.5098 32.6924 26.5129 32.5624L26.5133 32.5445V32.5267C26.5133 32.4245 26.6088 32.3 26.7633 32.3H26.7633H26.7633H26.7633H26.7633H26.7633H26.7633H26.7633H26.7633H26.7633H26.7633H26.7633H26.7633H26.7633H26.7633H26.7633H26.7633H26.7633H26.7633H26.7633H26.7633H26.7633H26.7633H26.7633H26.7633H26.7633H26.7634H26.7634H26.7634H26.7634H26.7634H26.7634H26.7634H26.7634H26.7634H26.7634H26.7634H26.7634H26.7634H26.7634H26.7634H26.7634H26.7634H26.7634H26.7634H26.7634H26.7634H26.7634H26.7634H26.7634H26.7634H26.7634H26.7634H26.7634H26.7634H26.7634H26.7634H26.7634H26.7634H26.7634H26.7634H26.7635H26.7635H26.7635H26.7635H26.7635H26.7635H26.7635H26.7635H26.7635H26.7635H26.7635H26.7635H26.7635H26.7635H26.7635H26.7635H26.7635H26.7635H26.7636H26.7636H26.7636H26.7636H26.7636H26.7636H26.7636H26.7636H26.7636H26.7636H26.7636H26.7636H26.7636H26.7636H26.7637H26.7637H26.7637H26.7637H26.7637H26.7637H26.7637H26.7637H26.7637H26.7637H26.7637H26.7637H26.7638H26.7638H26.7638H26.7638H26.7638H26.7638H26.7638H26.7638H26.7638H26.7638H26.7639H26.7639H26.7639H26.7639H26.7639H26.7639H26.7639H26.7639H26.764H26.764H26.764H26.764H26.764H26.764H26.764H26.764H26.7641H26.7641H26.7641H26.7641H26.7641H26.7641H26.7641H26.7642H26.7642H26.7642H26.7642H26.7642H26.7642H26.7643H26.7643H26.7643H26.7643H26.7643H26.7643H26.7643H26.7644H26.7644H26.7644H26.7644H26.7644H26.7645H26.7645H26.7645H26.7645H26.7645H26.7645H26.7646H26.7646H26.7646H26.7646H26.7646H26.7647H26.7647H26.7647H26.7647H26.7648H26.7648H26.7648H26.7648H26.7648H26.7649H26.7649H26.7649H26.7649H26.765H26.765H26.765H26.765H26.765H26.7651H26.7651H26.7651H26.7651H26.7652H26.7652H26.7652H26.7652H26.7653H26.7653H26.7653H26.7654H26.7654H26.7654H26.7654H26.7655H26.7655H26.7655H26.7655H26.7656H26.7656H26.7656H26.7657H26.7657H26.7657H26.7658H26.7658H26.7658H26.7658H26.7659H26.7659H26.7659H26.766H26.766H26.766H26.7661H26.7661H26.7661H26.7662H26.7662H26.7662H26.7663H26.7663H26.7663H26.7664H26.7664H26.7664H26.7665H26.7665H26.7666H26.7666H26.7666H26.7667H26.7667H26.7667H26.7668H26.7668H26.7669H26.7669H26.7669H26.767H26.767H26.7671H26.7671H26.7671H26.7672H26.7672H26.7673H26.7673H26.7673H26.7674H26.7674H26.7675H26.7675H26.7676H26.7676H26.7676H26.7677H26.7677H26.7678H26.7678H26.7679H26.7679H26.768H26.768H26.7681H26.7681H26.7682H26.7682H26.7683H26.7683H26.7683H26.7684H26.7684H26.7685H26.7685H26.7686H26.7686H26.7687H26.7688H26.7688H26.7689H26.7689H26.769H26.769H26.7691H26.7691H26.7692H26.7692H26.7693H26.7693H26.7694H26.7695H26.7695H26.7696H26.7696H26.7697H26.7697H26.7698H26.7699H26.7699H26.77H26.77H26.7701H26.7702H26.7702H26.7703H26.7703H26.7704H26.7705H26.7705H26.7706H26.7706H26.7707H26.7708H26.7708H26.7709H26.771H26.771H26.7711H26.7712H26.7712H26.7713H26.7714H26.7714H26.7715H26.7716H26.7716H26.7717H26.7718H26.7718H26.7719H26.772H26.7721H26.7721H26.7722H26.7723H26.7723H26.7724H26.7725H26.7726H26.7726H26.7727H26.7728H26.7729H26.7729H26.773H26.7731H26.7732H26.7732H26.7733H26.7734H26.7735H26.7736H26.7736H26.7737H26.7738H26.7739H26.774H26.774H26.7741H26.7742H26.7743H26.7744H26.7744H26.7745H26.7746H26.7747H26.7748H26.7749H26.775H26.775H26.7751H26.7752H26.7753H26.7754H26.7755H26.7756H26.7757H26.7757H26.7758H26.7759H26.776H26.7761H26.7762H26.7763H26.7764H26.7765H26.7766H26.7767H26.7768H26.7769H26.7769H26.777H26.7771H26.7772H26.7773H26.7774H26.7775H26.7776H26.7777H26.7778H26.7779H26.778H26.7781H26.7782H26.7783H26.7784H26.7785H26.7786H26.7787H26.7788H26.7789H26.7791H26.7792H26.7793H26.7794H26.7795H26.7796H26.7797H26.7798H26.7799H26.78H26.7801H26.7802H26.7803H26.7805H26.7806L38.4383 32.4166L38.4458 32.4167H38.4533C38.5754 32.4167 38.6835 32.5243 38.6804 32.6543L40.18 32.69L38.6804 32.6534C38.6765 32.8155 38.5542 32.9145 38.4339 32.9166L26.755 32.8001Z" stroke="black" stroke-width="3"/>
<path d="M33.7633 23.5833H26.7633C26.7071 23.5833 26.6445 23.5606 26.5902 23.5064C26.536 23.4522 26.5133 23.3896 26.5133 23.3333C26.5133 23.2771 26.536 23.2145 26.5902 23.1602C26.6445 23.106 26.7071 23.0833 26.7633 23.0833H33.7633C33.8196 23.0833 33.8822 23.106 33.9364 23.1602C33.9907 23.2145 34.0133 23.2771 34.0133 23.3333C34.0133 23.3896 33.9907 23.4522 33.9364 23.5064C33.8822 23.5606 33.8196 23.5833 33.7633 23.5833Z" stroke="black" stroke-width="3"/>
<path d="M8.5884 48.6463L8.58789 48.6455L6.67623 45.4749C6.67596 45.4745 6.67569 45.474 6.67542 45.4736C6.11325 44.5358 5.65332 42.8896 5.65332 41.8133V11.55C5.65332 7.61843 8.85508 4.41667 12.7867 4.41667C16.7182 4.41667 19.92 7.61843 19.92 11.55V41.79C19.92 42.8663 19.4601 44.5124 18.8979 45.4502C18.8976 45.4506 18.8974 45.4511 18.8971 45.4516L16.9854 48.6222L16.9776 48.6351L16.9701 48.6482C15.8367 50.6168 14.268 51.5133 12.81 51.5133C11.3503 51.5133 9.77309 50.6141 8.5884 48.6463ZM7.10955 45.1914L7.10951 45.1914L7.11542 45.2012L9.0249 48.3681C9.02557 48.3692 9.02625 48.3704 9.02692 48.3715C9.85207 49.7541 11.1572 50.99 12.81 50.99C14.4735 50.99 15.7767 49.7145 16.5884 48.3791L16.5912 48.3745L18.5046 45.2012L18.5046 45.2012L18.5104 45.1914C18.794 44.7128 19.0176 44.0903 19.1684 43.5395C19.3191 42.9889 19.4433 42.3416 19.4433 41.79V11.55C19.4433 7.89824 16.4617 4.91667 12.81 4.91667C9.15823 4.91667 6.17665 7.89824 6.17665 11.55V41.79C6.17665 42.3416 6.30083 42.9889 6.45157 43.5395C6.60239 44.0903 6.82594 44.7128 7.10955 45.1914Z" stroke="black" stroke-width="3"/>
<path d="M19.6933 16.5833H5.90332C5.84704 16.5833 5.78445 16.5606 5.73023 16.5064C5.67601 16.4522 5.65332 16.3896 5.65332 16.3333C5.65332 16.2771 5.67601 16.2145 5.73023 16.1602C5.78445 16.106 5.84704 16.0833 5.90332 16.0833H19.6933C19.7496 16.0833 19.8122 16.106 19.8664 16.1602C19.9206 16.2145 19.9433 16.2771 19.9433 16.3333C19.9433 16.3896 19.9206 16.4522 19.8664 16.5064C19.8122 16.5606 19.7496 16.5833 19.6933 16.5833Z" stroke="black" stroke-width="3"/>

</g>

<g id="eye">
<path d="M17.7083 7.62494C15.7833 4.59994 12.9667 2.85828 10 2.85828C8.51667 2.85828 7.07501 3.29161 5.75834 4.09994C4.44167 4.91661 3.25834 6.10828 2.29167 7.62494C1.45834 8.93328 1.45834 11.0583 2.29167 12.3666C4.21667 15.3999 7.03334 17.1333 10 17.1333C11.4833 17.1333 12.925 16.6999 14.2417 15.8916C15.5583 15.0749 16.7417 13.8833 17.7083 12.3666C18.5417 11.0666 18.5417 8.93328 17.7083 7.62494ZM10 13.3666C8.13334 13.3666 6.63334 11.8583 6.63334 9.99994C6.63334 8.14161 8.13334 6.63328 10 6.63328C11.8667 6.63328 13.3667 8.14161 13.3667 9.99994C13.3667 11.8583 11.8667 13.3666 10 13.3666Z" fill="black"/>
<path d="M10 7.6167C8.69167 7.6167 7.625 8.68337 7.625 10C7.625 11.3084 8.69167 12.375 10 12.375C11.3083 12.375 12.3833 11.3084 12.3833 10C12.3833 8.6917 11.3083 7.6167 10 7.6167Z" fill="black"/>

</g>

<g id="user">
	<rect id="vuesax/bold/user" width="24.000000" height="24.000000" fill="none" fill-opacity="0"/>
		<path id="Vector" d="M2 2L22 2L22 22L2 22L2 2Z" fill="" fill-opacity="1.000000" fill-rule="evenodd"/>
	<path id="Vector" d="M16.16 7.83C16.16 10.13 14.3 12 12 12C9.69 12 7.83 10.13 7.83 7.83C7.83 5.53 9.69 3.66 12 3.66C14.3 3.66 16.16 5.53 16.16 7.83Z" fill="black" fill-opacity="1.000000" fill-rule="evenodd"/>
	<path id="Vector" d="M12 14.08C7.82 14.08 4.42 16.88 4.42 20.33C4.42 20.56 4.6 20.74 4.84 20.74L19.15 20.74C19.39 20.74 19.57 20.56 19.57 20.33C19.57 16.88 16.17 14.08 12 14.08Z" fill="black" fill-opacity="1.000000" fill-rule="nonzero"/>

</g>

<g id="vuesax">
	<rect id="vuesax/bold/eye" width="20.000000" height="20.000000" fill="black" fill-opacity="0"/>
	<path id="Vector" d="M17.7 7.62C15.78 4.6 12.96 2.85 9.99 2.85C8.51 2.85 7.07 3.29 5.75 4.1C4.44 4.91 3.25 6.1 2.29 7.62C1.45 8.93 1.45 11.05 2.29 12.36C4.21 15.4 7.03 17.13 9.99 17.13C11.48 17.13 12.92 16.7 14.24 15.89C15.55 15.07 16.74 13.88 17.7 12.36C18.54 11.06 18.54 8.93 17.7 7.62ZM9.99 13.36C8.13 13.36 6.63 11.85 6.63 10C6.63 8.14 8.13 6.63 9.99 6.63C11.86 6.63 13.36 8.14 13.36 10C13.36 11.85 11.86 13.36 9.99 13.36Z" fill="black" fill-opacity="1.000000" fill-rule="nonzero"/>
	<path id="Vector" d="M10 7.61C8.69 7.61 7.62 8.68 7.62 10C7.62 11.3 8.69 12.37 10 12.37C11.3 12.37 12.38 11.3 12.38 10C12.38 8.69 11.3 7.61 10 7.61Z" fill="black" fill-opacity="1.000000" fill-rule="nonzero"/>

</g>

<g id="python">
	<path id="Vector" d="M13.29 14.29L5.17 14.29C2.92 14.29 0.99 15.94 0.63 18.2C-0.22 23.69 -0.22 29.3 0.63 34.8C0.99 37.05 2.92 38.7 5.17 38.7L9.79 38.7C10.56 38.7 11.16 38.1 11.16 37.33L11.16 32.6C11.16 26.96 15.75 22.37 21.39 22.37L33.6 22.37C34.7 22.37 35.57 21.49 35.57 20.39L35.57 11.54C35.57 10.77 36.18 10.17 36.95 10.17L38.32 10.17C39.09 10.17 39.7 9.56 39.7 8.79L39.7 4.18C39.7 1.92 38.05 0 35.79 -0.36C30.3 -1.21 24.69 -1.21 19.19 -0.36C16.94 0 15.29 1.92 15.29 4.18L15.29 14.29L13.29 14.29ZM19.5 1.62L19.5 1.61Q23.57 0.98 27.64 1Q31.56 1.01 35.48 1.61Q36.61 1.79 37.16 2.45Q37.7 3.09 37.7 4.18L37.7 8.17L36.95 8.17Q35.26 8.17 34.42 9.01Q33.57 9.86 33.57 11.54L33.57 20.37L21.39 20.37Q18.89 20.37 16.75 21.25Q14.56 22.15 12.75 23.96Q10.94 25.77 10.04 27.96Q9.16 30.1 9.16 32.6L9.16 36.7L5.17 36.7Q4.08 36.7 3.45 36.17Q2.79 35.62 2.61 34.49Q1.98 30.42 1.99 26.35Q2 22.43 2.61 18.51Q2.79 17.38 3.45 16.83Q4.09 16.29 5.17 16.29L17.29 16.29L17.29 4.18Q17.29 3.09 17.82 2.45Q18.37 1.8 19.5 1.62Q19.5 1.62 19.5 1.62ZM18.91 5.36Q18.7 5.97 18.7 6.65Q18.7 7.3 18.89 7.89Q19.19 8.82 19.96 9.59Q20.74 10.36 21.66 10.66Q22.25 10.85 22.9 10.85Q23.58 10.85 24.19 10.64Q25.1 10.34 25.86 9.59Q26.63 8.83 26.93 7.91Q27.13 7.31 27.13 6.65Q27.13 5.72 26.78 4.94Q26.46 4.21 25.83 3.62Q25.25 3.04 24.55 2.74Q23.79 2.42 22.9 2.42Q22.24 2.42 21.65 2.62Q20.72 2.92 19.96 3.69Q19.21 4.45 18.91 5.36ZM24.44 5.05C24.06 4.67 23.45 4.42 22.9 4.42C21.77 4.42 20.7 5.49 20.7 6.65C20.7 7.78 21.77 8.85 22.9 8.85C24.06 8.85 25.13 7.78 25.13 6.65C25.13 6.07 24.85 5.44 24.44 5.05Z" fill="#FFFFFF" fill-opacity="1.000000" fill-rule="evenodd"/>
	<path id="Vector" d="M41.7 38.7L49.81 38.7C52.07 38.7 53.99 37.05 54.35 34.8C55.2 29.3 55.2 23.69 54.35 18.2C53.99 15.94 52.07 14.29 49.81 14.29L41.07 14.29C40.3 14.29 39.7 14.9 39.7 15.67L39.7 20.39C39.7 23.75 36.98 26.5 33.6 26.5L21.39 26.5C18.01 26.5 15.29 29.22 15.29 32.6L15.29 48.82C15.29 51.07 16.94 53 19.19 53.36C24.69 54.21 30.3 54.21 35.79 53.36C38.05 53 39.7 51.07 39.7 48.82L39.7 38.7L41.7 38.7ZM41.7 16.29L49.81 16.29Q50.9 16.29 51.54 16.83Q52.2 17.38 52.37 18.5Q53.01 22.57 52.99 26.64Q52.98 30.56 52.38 34.49Q52.2 35.62 51.54 36.17Q50.9 36.7 49.81 36.7L37.7 36.7L37.7 48.82Q37.7 49.91 37.16 50.54Q36.61 51.2 35.49 51.38Q31.42 52.01 27.35 52Q23.43 51.99 19.5 51.38Q18.37 51.2 17.82 50.54Q17.29 49.9 17.29 48.82L17.29 32.6Q17.29 30.55 18.31 29.52Q19.34 28.5 21.39 28.5L33.6 28.5Q35.27 28.5 36.71 27.9Q38.14 27.31 39.33 26.12Q40.52 24.92 41.11 23.48Q41.7 22.06 41.7 20.39L41.7 16.29ZM28.07 45.04Q27.86 45.66 27.86 46.35Q27.86 47.01 28.05 47.61Q28.36 48.54 29.14 49.31Q29.92 50.09 30.85 50.39Q31.44 50.57 32.08 50.57Q32.74 50.57 33.33 50.38Q34.26 50.08 35.03 49.3Q35.76 48.56 36.07 47.68Q36.29 47.06 36.31 46.36L36.31 46.34L36.31 46.32Q36.31 45.4 35.97 44.62Q35.64 43.87 34.98 43.26Q34.37 42.69 33.64 42.4Q32.92 42.12 32.08 42.12Q31.4 42.12 30.78 42.33Q29.88 42.63 29.12 43.39Q28.37 44.14 28.07 45.04ZM32.08 48.57C30.96 48.57 29.86 47.5 29.86 46.35C29.86 45.19 30.93 44.12 32.08 44.12C32.61 44.12 33.24 44.37 33.62 44.72C34.04 45.11 34.31 45.77 34.31 46.32C34.28 47.5 33.21 48.57 32.08 48.57Z" fill="#FFFFFF" fill-opacity="1.000000" fill-rule="evenodd"/>

</g>

<g id ="sms">
	<path id="Vector" d="M22.66 4.66L9.33 4.66C5.33 4.66 2.66 6.66 2.66 11.33L2.66 20.66C2.66 25.33 5.33 27.33 9.33 27.33L22.66 27.33C26.66 27.33 29.33 25.33 29.33 20.66L29.33 11.33C29.33 6.66 26.66 4.66 22.66 4.66ZM23.29 12.78L19.12 16.12C18.24 16.82 17.12 17.17 16 17.17C14.88 17.17 13.74 16.82 12.88 16.12L8.7 12.78C8.28 12.44 8.21 11.8 8.54 11.37C8.89 10.94 9.51 10.86 9.94 11.21L14.12 14.54C15.13 15.36 16.85 15.36 17.86 14.54L22.04 11.21C22.46 10.86 23.1 10.93 23.44 11.37C23.78 11.8 23.72 12.44 23.29 12.78Z" fill="#7562E0" fill-opacity="1.000000" fill-rule="nonzero"/>
</g>

</svg>
